<svg xmlns="http://www.w3.org/2000/svg" id="Capa_1" data-name="Capa 1" viewBox="0 0 96 96"><defs><style>.cls-1{fill:#0094d5;}</style></defs><path class="cls-1" d="M36.56,82.17a52.84,52.84,0,0,1-5.71,1.41c-6.17.83-11.44-1.84-14-6.91a13.85,13.85,0,0,1,2.7-15.89,26.26,26.26,0,0,1,8.27-5.49c4.78-2.15,9.68-4,14.54-6A6.49,6.49,0,0,1,43.68,49l.17.39c-.39.27-.76.58-1.17.81A78.32,78.32,0,0,0,28.5,59.91a19.77,19.77,0,0,0-5.66,7.62c-2.11,5.43.78,9.82,6.6,9.88a21.63,21.63,0,0,0,4.8-.56,47.44,47.44,0,0,0,4.63-1.49c.18.33.34.73.57,1.07a35.24,35.24,0,0,0,3,4.43c5.07,5.61,12.62,4.48,16-2.28.35-.71.39-2,1.63-1.63s.57,1.59.41,2.39a14.23,14.23,0,0,1-4.32,7.79,11.26,11.26,0,0,1-16.76-1C38.33,84.89,37.47,83.46,36.56,82.17Z"></path><path class="cls-1" d="M57.21,20.73a25.07,25.07,0,0,0-1.75-3.07,21.65,21.65,0,0,0-3.27-3.73C47.3,9.9,41,11.21,37.94,16.78a14.31,14.31,0,0,1-.88,1.75,1.5,1.5,0,0,1-1.14.54c-.24,0-.6-.62-.61-1C35.15,14,39,8.51,43.35,6.58A10.75,10.75,0,0,1,55.69,9a58.16,58.16,0,0,1,3.78,4.75,50.85,50.85,0,0,1,7.24-1.4C72,12.07,76.33,14.23,78.9,19a12.8,12.8,0,0,1-1,14.26A18.77,18.77,0,0,1,73,37.93a80.89,80.89,0,0,1-19.68,8.92,4.27,4.27,0,0,1-1.08.08l-.11-.38c.38-.24.76-.5,1.15-.72C59,42.65,64.45,39.21,69.08,34.59a16.21,16.21,0,0,0,4.47-7.32c1.17-4.41-1.14-7.9-5.65-8.57a18.25,18.25,0,0,0-9,1.36C58.37,20.25,57.85,20.47,57.21,20.73Z"></path><path class="cls-1" d="M49.58,53.18c1.67,2.68,3.13,5.17,4.73,7.56a45.61,45.61,0,0,0,7.93,9.59A15.42,15.42,0,0,0,69.13,74c4.46.94,7.93-1.54,8.53-6.07a18.14,18.14,0,0,0-1.13-8.38c-.24-.7-.51-1.39-.79-2.15.91-.51,1.8-1,2.64-1.5a13.23,13.23,0,0,0,5.78-6.59c1.64-4.43-.2-9-4.68-11.6-.53-.31-1.13-.5-1.63-.84-.28-.18-.43-.55-.64-.83.34-.13.73-.44,1-.36a30.44,30.44,0,0,1,5.52,2,11.57,11.57,0,0,1,6,12.48c-.78,3.63-3.16,6.06-6.2,7.95-.63.4-1.28.75-2,1.19.23.65.47,1.29.7,1.93C83.6,65,84,68.81,82.34,72.61a12.68,12.68,0,0,1-17.8,6,19.39,19.39,0,0,1-5.32-4.57C56,70.2,50.79,58.52,49.58,53.18Z"></path><path class="cls-1" d="M46.31,42.85c-.45-.79-.73-1.3-1-1.8A68.57,68.57,0,0,0,34.9,26.75a17.17,17.17,0,0,0-7-4.47c-5.11-1.6-9.19,1.17-9.61,6.5a20.05,20.05,0,0,0,1.53,8.59c.15.41.31.81.41,1.08A55.52,55.52,0,0,0,15,42.16c-5.92,5.32-4.73,13.21,2.41,16.67A6.94,6.94,0,0,1,18.78,60a6.13,6.13,0,0,1-1.77.22C11.1,59.18,6.56,54.55,6,49a10.43,10.43,0,0,1,3.87-9.19,46.8,46.8,0,0,1,4.31-3.08,58,58,0,0,1-1.5-7A12,12,0,0,1,18.3,17.93c4.24-2.76,8.74-2.8,13.24-.56A15.2,15.2,0,0,1,37.61,23a88.31,88.31,0,0,1,8.7,19.07A5.19,5.19,0,0,1,46.31,42.85Z"></path></svg>